<?xml version="1.0" encoding="UTF-8" standalone="no"?>
<svg
   version="1.0"
   width="199.000000pt"
   height="255.000000pt"
   viewBox="0 0 199.000000 255.000000"
   preserveAspectRatio="xMidYMid meet"
   id="svg44"
   sodipodi:docname="drawing-lores.svg"
   inkscape:version="1.1.1 (3bf5ae0d25, 2021-09-20)"
   xmlns:inkscape="http://www.inkscape.org/namespaces/inkscape"
   xmlns:sodipodi="http://sodipodi.sourceforge.net/DTD/sodipodi-0.dtd"
   xmlns="http://www.w3.org/2000/svg"
   xmlns:svg="http://www.w3.org/2000/svg">
  <defs
     id="defs48" />
  <sodipodi:namedview
     id="namedview46"
     pagecolor="#ffffff"
     bordercolor="#666666"
     borderopacity="1.0"
     inkscape:pageshadow="2"
     inkscape:pageopacity="0.0"
     inkscape:pagecheckerboard="0"
     inkscape:document-units="pt"
     showgrid="false"
     inkscape:zoom="4.2294118"
     inkscape:cx="62.656467"
     inkscape:cy="166.45341"
     inkscape:window-width="2560"
     inkscape:window-height="1403"
     inkscape:window-x="0"
     inkscape:window-y="0"
     inkscape:window-maximized="1"
     inkscape:current-layer="svg44" />
  <metadata
     id="metadata2">
Created by potrace 1.16, written by Peter Selinger 2001-2019
</metadata>
  <g
     transform="translate(0.000000,255.000000) scale(0.100000,-0.100000)"
     fill="#000000"
     stroke="none"
     id="g42">
    <path
       d="m 610,2213 -14,-80 8,-53 49,55 27,80 -35,25 z"
       id="path4"
       sodipodi:nodetypes="ccccccc" />
    <path
       d="m 1310,2213 -14,-80 8,-53 49,55 27,80 -35,25 z"
       id="path6"
       sodipodi:nodetypes="ccccccc" />
    <path
       d="m 820,2040 46.25,-7.25 128.75,-2.75 128.75,2.75 46.25,7.25 -46.25,7.25 L 995,2050 866.25,2047.25 Z"
       id="path8"
       sodipodi:nodetypes="ccccccccc" />
    <path
       d="M 592,1863 639.25,1655 592,1447 581.5,1423.5 571,1400 h 11.5 11.5 l 24.875,13.625 L 649,1470 693.5,1655 648,1843 618.75,1896.75 594,1910 H 582.5 571 l 10.5,-23.5 z"
       id="path10"
       sodipodi:nodetypes="ccccccccccccccccc" />
    <path
       d="M 1346,1863 1305.25,1755.25 1290,1655 1325.875,1490.75 1391,1400 l 14.75,3.75 -1.75,14.25 -57.75,237.125 57.75,237.875 1.75,13.375 -14.75,3.625 -21.75,-11.125 z"
       id="path12"
       sodipodi:nodetypes="ccccccccccccc" />
    <path
       d="m 850,1788 54,-153 54,-150 33,-3 34,-3 56,156 56,155 h -27 l -70,-125 -49,-119 -47,122 -68,120 z"
       id="path14"
       sodipodi:nodetypes="ccccccccccccc" />
    <path
       d="m 524,1168 196,-411 29,-5 -87,233 -135,233 -27,3 z"
       id="path16"
       sodipodi:nodetypes="ccccccc" />
    <path
       d="m 1380,1138 -108,-233 -50,-153 29,5 210,441 -17,22 z"
       id="path18"
       sodipodi:nodetypes="ccccccc" />
    <path
       d="M 820,680 866.25,672.75 995,670 1123.75,672.75 1170,680 1123.75,687.25 995,690 866.25,687.25 Z"
       id="path20"
       sodipodi:nodetypes="ccccccccc" />
    <path
       d="M 910,465 913.5,400.125 935,390 956.5,400.125 960,465 956.5,529.875 935,540 913.5,529.875 Z"
       id="path22"
       sodipodi:nodetypes="ccccccccc" />
    <path
       d="m 1020,465 3.5,-64.875 L 1045,390 1066.5,400.125 1070,465 1066.5,529.875 1045,540 1023.5,529.875 Z"
       id="path24"
       sodipodi:nodetypes="ccccccccc" />
    <path
       d="M 142,358 164.25,337.5 293,332 366.5,330.5 440,329 v 13 13 12.5 12.5 H 364.5 289 l -130.875,-2.75 z"
       id="path26"
       sodipodi:nodetypes="ccccccccccccc" />
    <path
       d="M 492,358 514.25,337.5 643,332 716.5,330.5 790,329 v 13 13 12.5 12.5 H 714.5 639 l -130.875,-2.75 z"
       id="path28"
       sodipodi:nodetypes="ccccccccccccc" />
    <path
       d="m 1192,358 22.25,-20.5 128.75,-5.5 73.5,-1.5 73.5,-1.5 v 13 13 12.5 12.5 h -75.5 -75.5 l -130.875,-2.75 z"
       id="path30"
       sodipodi:nodetypes="ccccccccccccc" />
    <path
       d="m 1542,358 22.25,-20.5 128.75,-5.5 73.5,-1.5 73.5,-1.5 v 13 13 12.5 12.5 h -75.5 -75.5 l -130.875,-2.75 z"
       id="path32"
       sodipodi:nodetypes="ccccccccccccc" />
    <path
       d="M 147,263 142,253.125 140,238 162.875,222.625 290,220 h 75 75 V 232.5 245 257.5 270 H 368.5 297 l -103.5,-2 z"
       id="path34"
       sodipodi:nodetypes="ccccccccccccccc" />
    <path
       d="M 497,263 492,253.125 490,238 512.875,222.625 640,220 h 75 75 V 232.5 245 257.5 270 H 718.5 647 l -103.5,-2 z"
       id="path36"
       sodipodi:nodetypes="ccccccccccccccc" />
    <path
       d="m 1197,263 -5,-9.875 L 1190,238 1212.875,222.625 1340,220 h 75 75 v 12.5 12.5 12.5 12.5 h -71.5 -71.5 l -103.5,-2 z"
       id="path38"
       sodipodi:nodetypes="ccccccccccccccc" />
    <path
       d="m 1547,263 -5,-9.875 L 1540,238 1562.875,222.625 1690,220 h 75 75 v 12.5 12.5 12.5 12.5 h -71.5 -71.5 l -103.5,-2 z"
       id="path40"
       sodipodi:nodetypes="ccccccccccccccc" />
  </g>
</svg>
