<?xml version="1.0" encoding="UTF-8"?>
<!DOCTYPE svg PUBLIC "-//W3C//DTD SVG 1.1//EN" "http://www.w3.org/Graphics/SVG/1.1/DTD/svg11.dtd">
<svg xmlns="http://www.w3.org/2000/svg" version="1.1" width="640px" height="227px" style="shape-rendering:geometricPrecision; text-rendering:geometricPrecision; image-rendering:optimizeQuality; fill-rule:evenodd; clip-rule:evenodd" xmlns:xlink="http://www.w3.org/1999/xlink">
<g><path style="opacity:0.953" fill="#ffdd04" d="M 390.5,-0.5 C 400.833,-0.5 411.167,-0.5 421.5,-0.5C 426.109,0.339086 430.776,1.50575 435.5,3C 436.5,5.09071 435.833,6.75737 433.5,8C 423.834,13.1339 413.501,15.4673 402.5,15C 398.951,15.7736 395.618,17.107 392.5,19C 387.138,28.0519 380.804,36.3852 373.5,44C 370.637,45.3989 367.637,46.3989 364.5,47C 358.058,47.0827 351.725,47.7493 345.5,49C 342.167,51.3333 338.833,53.6667 335.5,56C 340.547,55.4687 345.547,56.1354 350.5,58C 350.957,58.414 351.291,58.914 351.5,59.5C 346.568,62.3657 341.235,64.0324 335.5,64.5C 328.401,63.3088 321.401,61.6421 314.5,59.5C 313.287,59.2528 312.62,58.5862 312.5,57.5C 333.868,51.5341 333.534,49.8675 311.5,52.5C 311.351,51.448 311.517,50.448 312,49.5C 316.258,46.2868 320.425,42.9535 324.5,39.5C 333.572,38.9329 342.238,36.7662 350.5,33C 356.084,24.5006 361.417,15.8339 366.5,7C 374.15,2.94745 382.15,0.447455 390.5,-0.5 Z"/></g>
<g><path style="opacity:0.945" fill="#ffdd05" d="M 385.5,78.5 C 376.977,75.7941 367.977,73.7941 358.5,72.5C 357.287,72.2528 356.62,71.5862 356.5,70.5C 360.962,69.8466 365.295,68.6799 369.5,67C 366.895,65.9787 364.228,65.1454 361.5,64.5C 358.553,65.4226 355.553,66.0893 352.5,66.5C 352.297,64.6096 352.963,63.1096 354.5,62C 359.001,59.5841 363.334,56.9175 367.5,54C 372.833,53.6667 378.167,53.3333 383.5,53C 389.623,52.3556 394.456,49.5223 398,44.5C 401.548,37.9013 405.714,31.7346 410.5,26C 422.694,21.068 435.361,19.4013 448.5,21C 458.762,21.719 468.762,23.719 478.5,27C 481.003,28.5494 481.003,30.2161 478.5,32C 475.326,33.7248 471.993,35.0581 468.5,36C 460.5,36.3333 452.5,36.6667 444.5,37C 441.363,37.6011 438.363,38.6011 435.5,40C 429.876,47.8932 423.543,55.2265 416.5,62C 411.802,64.3736 406.802,65.5402 401.5,65.5C 396.834,64.8318 392.167,64.6651 387.5,65C 383.326,67.5877 378.993,69.921 374.5,72C 380.029,72.0842 385.362,73.0842 390.5,75C 391.711,75.8928 391.711,76.7261 390.5,77.5C 388.929,78.3094 387.262,78.6427 385.5,78.5 Z"/></g>
<g><path style="opacity:0.953" fill="#ffdd09" d="M 465.5,99.5 C 446.459,94.9886 427.459,89.9886 408.5,84.5C 407.893,84.6236 407.56,84.9569 407.5,85.5C 402.306,84.0614 396.973,83.0614 391.5,82.5C 391.977,81.5224 392.643,80.6891 393.5,80C 398.198,77.6511 402.864,75.3178 407.5,73C 413.812,73.3556 420.145,73.3556 426.5,73C 428.878,72.4888 431.212,71.8221 433.5,71C 440.207,63.9618 446.54,56.6284 452.5,49C 475.876,43.6338 498.543,45.9671 520.5,56C 522.007,56.8373 522.507,58.0039 522,59.5C 518.204,61.9878 514.038,63.4878 509.5,64C 502.277,64.5255 495.11,64.0255 488,62.5C 479.462,62.5952 473.129,66.2619 469,73.5C 463.701,78.8693 458.201,83.8693 452.5,88.5C 452.608,89.4419 452.941,90.2753 453.5,91C 457.68,93.6964 461.68,96.5298 465.5,99.5 Z"/></g>
<g><path style="opacity:1" fill="#ffe44f" d="M 312.5,57.5 C 312.62,58.5862 313.287,59.2528 314.5,59.5C 321.401,61.6421 328.401,63.3088 335.5,64.5C 330.205,65.1624 326.205,67.8291 323.5,72.5C 322.653,71.0337 321.32,70.2004 319.5,70C 313.613,68.1943 307.613,67.0277 301.5,66.5C 303.061,60.9396 306.728,57.9396 312.5,57.5 Z"/></g>
<g><path style="opacity:1" fill="#ffe76d" d="M 301.5,66.5 C 307.613,67.0277 313.613,68.1943 319.5,70C 321.32,70.2004 322.653,71.0337 323.5,72.5C 323.34,74.153 322.674,75.4863 321.5,76.5C 315.764,74.2021 309.764,72.3688 303.5,71C 302.177,70.1841 301.511,69.0174 301.5,67.5C 301.5,67.1667 301.5,66.8333 301.5,66.5 Z"/></g>
<g><path style="opacity:0.592" fill="#fefffe" d="M 196.5,68.5 C 197.833,68.5 199.167,68.5 200.5,68.5C 200.831,76.1955 200.497,83.8622 199.5,91.5C 188.976,93.1294 185.476,88.7961 189,78.5C 190.995,76.253 193.495,75.253 196.5,75.5C 196.5,73.1667 196.5,70.8333 196.5,68.5 Z M 193.5,78.5 C 194.5,78.5 195.5,78.5 196.5,78.5C 196.5,82.1667 196.5,85.8333 196.5,89.5C 194.089,89.8633 192.589,88.8633 192,86.5C 191.282,83.5929 191.782,80.9262 193.5,78.5 Z"/></g>
<g><path style="opacity:0.453" fill="#fefffe" d="M 168.5,69.5 C 170.898,70.8823 171.065,72.549 169,74.5C 165.914,72.9981 165.748,71.3315 168.5,69.5 Z"/></g>
<g><path style="opacity:0.602" fill="#fefffe" d="M 155.5,71.5 C 158.167,71.5 160.833,71.5 163.5,71.5C 163.88,75.1569 162.547,76.1569 159.5,74.5C 157.734,74.4342 156.734,75.2676 156.5,77C 158.807,79.2603 161.307,81.427 164,83.5C 165.249,89.0106 163.082,92.0106 157.5,92.5C 155.519,92.5629 153.852,91.8962 152.5,90.5C 152.887,89.2801 153.72,88.6135 155,88.5C 157.808,90.0151 159.641,89.1817 160.5,86C 158.193,83.7397 155.693,81.573 153,79.5C 152.388,76.3893 153.221,73.7226 155.5,71.5 Z"/></g>
<g><path style="opacity:0.596" fill="#fefffe" d="M 228.5,71.5 C 229.5,71.5 230.5,71.5 231.5,71.5C 231.5,78.5 231.5,85.5 231.5,92.5C 230.167,92.5 228.833,92.5 227.5,92.5C 227.828,87.1254 227.495,81.7921 226.5,76.5C 224.737,77.9538 223.403,77.6204 222.5,75.5C 224.901,74.6424 226.901,73.309 228.5,71.5 Z"/></g>
<g><path style="opacity:0.585" fill="#fefffe" d="M 239.5,71.5 C 246.168,70.1782 249.502,72.8449 249.5,79.5C 249.083,86.5835 245.416,90.9169 238.5,92.5C 238.281,91.325 238.614,90.325 239.5,89.5C 241.585,88.4586 243.252,86.9586 244.5,85C 236.074,83.0523 234.407,78.5523 239.5,71.5 Z M 241.5,74.5 C 245.316,75.0897 246.983,77.4231 246.5,81.5C 240.753,82.1285 239.086,79.7952 241.5,74.5 Z"/></g>
<g><path style="opacity:0.583" fill="#fefffe" d="M 259.5,71.5 C 261.346,71.2222 262.68,71.8888 263.5,73.5C 260.743,74.7532 258.409,76.5865 256.5,79C 263.267,79.4358 265.767,82.9358 264,89.5C 256.885,94.6662 252.718,92.8328 251.5,84C 252.042,78.4029 254.709,74.2362 259.5,71.5 Z M 255.5,82.5 C 257.167,82.5 258.833,82.5 260.5,82.5C 261.973,85.5698 261.14,87.9031 258,89.5C 255.866,87.7129 255.033,85.3795 255.5,82.5 Z"/></g>
<g><path style="opacity:0.588" fill="#fefffe" d="M 269.5,71.5 C 274.352,70.2772 277.519,71.9438 279,76.5C 279.667,80.1667 279.667,83.8333 279,87.5C 275,94.1667 271,94.1667 267,87.5C 265.833,81.7889 266.667,76.4556 269.5,71.5 Z M 271.5,74.5 C 272.822,74.33 273.989,74.6634 275,75.5C 275.667,79.5 275.667,83.5 275,87.5C 273.667,90.1667 272.333,90.1667 271,87.5C 270.232,83.0804 270.398,78.7471 271.5,74.5 Z"/></g>
<g><path style="opacity:0.563" fill="#fefffe" d="M 166.5,75.5 C 167.833,75.5 169.167,75.5 170.5,75.5C 170.5,81.1667 170.5,86.8333 170.5,92.5C 169.167,92.5 167.833,92.5 166.5,92.5C 166.5,86.8333 166.5,81.1667 166.5,75.5 Z"/></g>
<g><path style="opacity:0.582" fill="#fefffe" d="M 174.5,75.5 C 178.257,75.0708 181.757,75.7375 185,77.5C 185.499,82.4889 185.666,87.4889 185.5,92.5C 184.167,92.5 182.833,92.5 181.5,92.5C 181.5,87.8333 181.5,83.1667 181.5,78.5C 180.167,78.5 178.833,78.5 177.5,78.5C 177.5,83.1667 177.5,87.8333 177.5,92.5C 176.167,92.5 174.833,92.5 173.5,92.5C 173.214,86.7414 173.548,81.0748 174.5,75.5 Z"/></g>
<g><path style="opacity:0.575" fill="#fefffe" d="M 205.5,75.5 C 207.5,75.5 209.5,75.5 211.5,75.5C 211.657,76.8734 211.49,78.2068 211,79.5C 209.644,78.6198 208.144,78.2865 206.5,78.5C 206.281,79.675 206.614,80.675 207.5,81.5C 211.81,82.6329 213.31,85.2996 212,89.5C 208.061,93.7346 204.894,93.4013 202.5,88.5C 203.93,88.4208 205.264,88.7542 206.5,89.5C 207.72,89.1131 208.387,88.2798 208.5,87C 206.79,85.3889 204.957,83.8889 203,82.5C 202.162,79.5193 202.995,77.1859 205.5,75.5 Z"/></g>
<g><path style="opacity:1" fill="#ffea87" d="M 301.5,67.5 C 301.511,69.0174 302.177,70.1841 303.5,71C 309.764,72.3688 315.764,74.2021 321.5,76.5C 321.405,78.7857 320.738,80.7857 319.5,82.5C 312.309,80.9544 305.309,78.9544 298.5,76.5C 299.054,73.2542 300.054,70.2542 301.5,67.5 Z"/></g>
<g><path style="opacity:1" fill="#ffe454" d="M 356.5,70.5 C 356.62,71.5862 357.287,72.2528 358.5,72.5C 367.977,73.7941 376.977,75.7941 385.5,78.5C 379.304,79.9265 372.97,81.2599 366.5,82.5C 358.492,80.9202 350.825,78.5869 343.5,75.5C 343.953,74.5416 344.619,73.7083 345.5,73C 349.173,72.026 352.84,71.1926 356.5,70.5 Z"/></g>
<g><path style="opacity:0.973" fill="#ffee9f" d="M 298.5,76.5 C 305.309,78.9544 312.309,80.9544 319.5,82.5C 319.244,85.5979 318.578,88.5979 317.5,91.5C 316.691,90.5313 315.691,89.6979 314.5,89C 309.311,87.5777 304.144,86.0777 299,84.5C 297.989,85.0556 297.156,85.7222 296.5,86.5C 296.54,83.0124 297.207,79.6791 298.5,76.5 Z"/></g>
<g><path style="opacity:1" fill="#ffe772" d="M 343.5,75.5 C 350.825,78.5869 358.492,80.9202 366.5,82.5C 364.804,84.5248 363.137,86.5248 361.5,88.5C 355.039,86.3817 348.372,84.5484 341.5,83C 340.944,82.6174 340.611,82.1174 340.5,81.5C 340.992,79.1815 341.992,77.1815 343.5,75.5 Z"/></g>
<g><path style="opacity:0.979" fill="#fff2b7" d="M 317.5,91.5 C 317.125,93.6976 316.458,95.6976 315.5,97.5C 308.718,96.2383 302.052,94.5717 295.5,92.5C 295.205,90.2646 295.539,88.2646 296.5,86.5C 297.156,85.7222 297.989,85.0556 299,84.5C 304.144,86.0777 309.311,87.5777 314.5,89C 315.691,89.6979 316.691,90.5313 317.5,91.5 Z"/></g>
<g><path style="opacity:1" fill="#ffea8c" d="M 340.5,81.5 C 340.611,82.1174 340.944,82.6174 341.5,83C 348.372,84.5484 355.039,86.3817 361.5,88.5C 360.674,91.4848 359.341,94.1515 357.5,96.5C 357.649,95.448 357.483,94.448 357,93.5C 351.324,93.1679 345.658,91.8345 340,89.5C 338.607,92.1251 337.441,92.1251 336.5,89.5C 337.323,86.5198 338.657,83.8531 340.5,81.5 Z"/></g>
<g><path style="opacity:1" fill="#ffe345" d="M 407.5,85.5 C 407.56,84.9569 407.893,84.6236 408.5,84.5C 427.459,89.9886 446.459,94.9886 465.5,99.5C 468.855,100.855 471.189,103.189 472.5,106.5C 448.43,100.897 424.763,94.5635 401.5,87.5C 404.477,87.6417 406.477,86.9751 407.5,85.5 Z"/></g>
<g><path style="opacity:1" fill="#ffe872" d="M 392.5,88.5 C 392.611,89.1174 392.944,89.6174 393.5,90C 403.211,92.511 412.877,95.1777 422.5,98C 421.584,98.2784 420.918,98.7784 420.5,99.5C 415.115,100.058 409.782,100.725 404.5,101.5C 404.53,100.503 404.03,99.8361 403,99.5C 395.236,97.1893 387.736,95.1893 380.5,93.5C 381.343,91.8267 382.676,90.66 384.5,90C 387.254,89.7276 389.921,89.2276 392.5,88.5 Z"/></g>
<g><path style="opacity:0.97" fill="#ffefa6" d="M 336.5,89.5 C 337.441,92.1251 338.607,92.1251 340,89.5C 345.658,91.8345 351.324,93.1679 357,93.5C 357.483,94.448 357.649,95.448 357.5,96.5C 357.233,98.9653 356.566,101.299 355.5,103.5C 354.844,102.722 354.011,102.056 353,101.5C 347.305,99.8275 341.638,98.1608 336,96.5C 335.617,97.056 335.117,97.3893 334.5,97.5C 334.963,94.779 335.629,92.1123 336.5,89.5 Z"/></g>
<g><path style="opacity:1" fill="#ffeb8d" d="M 380.5,93.5 C 387.736,95.1893 395.236,97.1893 403,99.5C 404.03,99.8361 404.53,100.503 404.5,101.5C 402.5,103.167 400.5,104.833 398.5,106.5C 390.721,105.903 383.387,103.903 376.5,100.5C 377.58,98.0038 378.914,95.6705 380.5,93.5 Z"/></g>
<g><path style="opacity:1" fill="#ffe55a" d="M 401.5,87.5 C 424.763,94.5635 448.43,100.897 472.5,106.5C 471.833,107.833 470.833,108.833 469.5,109.5C 458.845,105.619 447.845,102.953 436.5,101.5C 434.825,99.998 432.992,98.6647 431,97.5C 427.679,98.9707 424.179,99.6374 420.5,99.5C 420.918,98.7784 421.584,98.2784 422.5,98C 412.877,95.1777 403.211,92.511 393.5,90C 392.944,89.6174 392.611,89.1174 392.5,88.5C 395.609,88.7359 398.609,88.4025 401.5,87.5 Z"/></g>
<g><path style="opacity:1" fill="#fff7d7" d="M 295.5,92.5 C 302.052,94.5717 308.718,96.2383 315.5,97.5C 314.633,103.299 313.3,108.966 311.5,114.5C 305.85,113.378 300.35,111.712 295,109.5C 294.617,110.056 294.117,110.389 293.5,110.5C 293.676,104.428 294.343,98.4284 295.5,92.5 Z"/></g>
<g><path style="opacity:1" fill="#ffe86f" d="M 436.5,101.5 C 447.845,102.953 458.845,105.619 469.5,109.5C 465.034,115.564 459.034,118.064 451.5,117C 446.352,112.018 441.352,106.851 436.5,101.5 Z"/></g>
<g><path style="opacity:0.712" fill="#ffde00" d="M 6.5,104.5 C 8.5,104.5 10.5,104.5 12.5,104.5C 12.5,107.167 12.5,109.833 12.5,112.5C 13.8333,112.5 15.1667,112.5 16.5,112.5C 16.5,109.833 16.5,107.167 16.5,104.5C 18.5,104.5 20.5,104.5 22.5,104.5C 22.5,111.833 22.5,119.167 22.5,126.5C 20.5,126.5 18.5,126.5 16.5,126.5C 16.5,123.5 16.5,120.5 16.5,117.5C 15.1667,117.5 13.8333,117.5 12.5,117.5C 12.5,120.5 12.5,123.5 12.5,126.5C 10.5,126.5 8.5,126.5 6.5,126.5C 6.5,119.167 6.5,111.833 6.5,104.5 Z"/></g>
<g><path style="opacity:0.737" fill="#ffdd00" d="M 29.5,104.5 C 31.8333,104.5 34.1667,104.5 36.5,104.5C 38.2946,111.884 40.2946,119.218 42.5,126.5C 40.4727,126.662 38.4727,126.495 36.5,126C 35.6198,124.644 35.2865,123.144 35.5,121.5C 31.5175,120.578 29.1842,122.078 28.5,126C 26.8659,126.494 25.1992,126.66 23.5,126.5C 25.297,119.109 27.297,111.776 29.5,104.5 Z M 32.5,113.5 C 33.782,114.708 33.782,116.042 32.5,117.5C 31.7084,116.3 31.7084,114.967 32.5,113.5 Z"/></g>
<g><path style="opacity:0.763" fill="#ffdd00" d="M 43.5,104.5 C 45.1992,104.34 46.8659,104.506 48.5,105C 50.4579,107.748 52.2912,110.582 54,113.5C 54.498,110.518 54.6646,107.518 54.5,104.5C 56.5,104.5 58.5,104.5 60.5,104.5C 60.5,111.833 60.5,119.167 60.5,126.5C 58.8008,126.66 57.1341,126.494 55.5,126C 53.208,122.584 51.0414,119.084 49,115.5C 48.5014,119.152 48.3347,122.818 48.5,126.5C 46.8333,126.5 45.1667,126.5 43.5,126.5C 43.5,119.167 43.5,111.833 43.5,104.5 Z"/></g>
<g><path style="opacity:0.754" fill="#ffde00" d="M 63.5,104.5 C 76.6679,102.843 81.5012,108.509 78,121.5C 74.2043,126.337 69.3709,127.67 63.5,125.5C 62.2056,118.443 62.2056,111.443 63.5,104.5 Z M 68.5,108.5 C 71.9404,109.449 73.2738,111.782 72.5,115.5C 72.3333,117.167 72.1667,118.833 72,120.5C 70.9887,121.337 69.8221,121.67 68.5,121.5C 68.5,117.167 68.5,112.833 68.5,108.5 Z"/></g>
<g><path style="opacity:0.739" fill="#ffde00" d="M 82.5,104.5 C 86.9113,104.021 91.078,104.688 95,106.5C 97.2909,109.835 96.7909,112.668 93.5,115C 96.2868,117.167 97.1201,120.001 96,123.5C 91.227,126.659 86.0603,127.326 80.5,125.5C 79.9287,118.219 80.5953,111.219 82.5,104.5 Z M 86.5,108.5 C 91.2183,109.319 91.5516,110.986 87.5,113.5C 86.5481,111.955 86.2148,110.288 86.5,108.5 Z M 86.5,116.5 C 90.0131,117.028 91.0131,118.862 89.5,122C 88.552,122.483 87.552,122.649 86.5,122.5C 86.5,120.5 86.5,118.5 86.5,116.5 Z"/></g>
<g><path style="opacity:0.744" fill="#ffde00" d="M 103.5,104.5 C 105.604,104.201 107.604,104.534 109.5,105.5C 111.971,112.385 113.971,119.385 115.5,126.5C 113.5,126.5 111.5,126.5 109.5,126.5C 109.442,122.212 107.442,120.879 103.5,122.5C 102.754,123.736 102.421,125.07 102.5,126.5C 100.396,126.799 98.396,126.466 96.5,125.5C 99.0387,118.55 101.372,111.55 103.5,104.5 Z M 105.5,112.5 C 106.339,113.641 107.006,114.974 107.5,116.5C 106.635,117.583 105.635,117.749 104.5,117C 105.38,115.644 105.714,114.144 105.5,112.5 Z"/></g>
<g><path style="opacity:0.736" fill="#ffdf00" d="M 116.5,104.5 C 118.5,104.5 120.5,104.5 122.5,104.5C 122.5,110.167 122.5,115.833 122.5,121.5C 124.199,121.34 125.866,121.506 127.5,122C 128.833,123.333 128.833,124.667 127.5,126C 123.848,126.499 120.182,126.665 116.5,126.5C 116.5,119.167 116.5,111.833 116.5,104.5 Z"/></g>
<g><path style="opacity:0.742" fill="#ffde00" d="M 126.5,104.5 C 128.604,104.201 130.604,104.534 132.5,105.5C 133.645,108.748 134.479,112.081 135,115.5C 136.31,111.93 137.143,108.263 137.5,104.5C 139.5,104.5 141.5,104.5 143.5,104.5C 142.14,111.604 140.307,118.604 138,125.5C 135.67,127.032 133.67,126.698 132,124.5C 129.538,117.984 127.705,111.317 126.5,104.5 Z"/></g>
<g><path style="opacity:0.72" fill="#ffde00" d="M 144.5,104.5 C 148.5,104.5 152.5,104.5 156.5,104.5C 156.5,106.167 156.5,107.833 156.5,109.5C 154.5,109.5 152.5,109.5 150.5,109.5C 150.5,110.5 150.5,111.5 150.5,112.5C 152.167,112.5 153.833,112.5 155.5,112.5C 155.5,114.167 155.5,115.833 155.5,117.5C 153.833,117.5 152.167,117.5 150.5,117.5C 150.5,118.833 150.5,120.167 150.5,121.5C 152.5,121.5 154.5,121.5 156.5,121.5C 156.5,123.167 156.5,124.833 156.5,126.5C 152.5,126.5 148.5,126.5 144.5,126.5C 144.5,119.167 144.5,111.833 144.5,104.5 Z"/></g>
<g><path style="opacity:0.741" fill="#ffde00" d="M 159.5,104.5 C 162.85,104.335 166.183,104.502 169.5,105C 173.292,107.053 174.458,110.219 173,114.5C 172.097,115.701 170.931,116.535 169.5,117C 171.041,119.916 172.707,122.749 174.5,125.5C 169.416,127.476 166.25,125.809 165,120.5C 164.505,122.473 164.338,124.473 164.5,126.5C 162.5,126.5 160.5,126.5 158.5,126.5C 158.203,119.08 158.536,111.746 159.5,104.5 Z M 164.5,108.5 C 165.5,108.5 166.5,108.5 167.5,108.5C 167.949,110.977 167.283,112.977 165.5,114.5C 164.534,112.604 164.201,110.604 164.5,108.5 Z"/></g>
<g><path style="opacity:0.718" fill="#ffde00" d="M 175.5,104.5 C 179.5,104.5 183.5,104.5 187.5,104.5C 187.5,106.167 187.5,107.833 187.5,109.5C 185.5,109.5 183.5,109.5 181.5,109.5C 181.5,110.5 181.5,111.5 181.5,112.5C 183.167,112.5 184.833,112.5 186.5,112.5C 186.5,114.167 186.5,115.833 186.5,117.5C 184.833,117.5 183.167,117.5 181.5,117.5C 181.5,118.833 181.5,120.167 181.5,121.5C 183.5,121.5 185.5,121.5 187.5,121.5C 187.5,123.167 187.5,124.833 187.5,126.5C 183.5,126.5 179.5,126.5 175.5,126.5C 175.5,119.167 175.5,111.833 175.5,104.5 Z"/></g>
<g><path style="opacity:0.744" fill="#ffde00" d="M 189.5,104.5 C 191.199,104.34 192.866,104.506 194.5,105C 196.458,107.748 198.291,110.582 200,113.5C 200.498,110.518 200.665,107.518 200.5,104.5C 202.75,104.181 204.75,104.681 206.5,106C 205.521,112.744 205.188,119.578 205.5,126.5C 203.278,126.822 201.444,126.155 200,124.5C 198.333,121.5 196.667,118.5 195,115.5C 194.501,119.152 194.335,122.818 194.5,126.5C 192.833,126.5 191.167,126.5 189.5,126.5C 189.5,119.167 189.5,111.833 189.5,104.5 Z"/></g>
<g><path style="opacity:0.747" fill="#ffde00" d="M 208.5,104.5 C 210.5,104.5 212.5,104.5 214.5,104.5C 214.5,111.833 214.5,119.167 214.5,126.5C 212.5,126.5 210.5,126.5 208.5,126.5C 208.5,119.167 208.5,111.833 208.5,104.5 Z"/></g>
<g><path style="opacity:0.722" fill="#ffde00" d="M 235.5,104.5 C 237.5,104.5 239.5,104.5 241.5,104.5C 241.5,111.833 241.5,119.167 241.5,126.5C 239.5,126.5 237.5,126.5 235.5,126.5C 235.5,119.167 235.5,111.833 235.5,104.5 Z"/></g>
<g><path style="opacity:0.797" fill="#ffde00" d="M 243.5,104.5 C 245.527,104.338 247.527,104.505 249.5,105C 251.333,108.167 253.167,111.333 255,114.5C 255.498,111.183 255.665,107.85 255.5,104.5C 257.167,104.5 258.833,104.5 260.5,104.5C 260.5,111.833 260.5,119.167 260.5,126.5C 258.712,126.785 257.045,126.452 255.5,125.5C 253.667,122.5 251.833,119.5 250,116.5C 249.502,119.817 249.335,123.15 249.5,126.5C 247.5,126.5 245.5,126.5 243.5,126.5C 243.5,119.167 243.5,111.833 243.5,104.5 Z"/></g>
<g><path style="opacity:0.751" fill="#ffde00" d="M 499.5,104.5 C 501.604,104.201 503.604,104.534 505.5,105.5C 507.967,112.068 510.134,118.735 512,125.5C 512.5,118.508 512.666,111.508 512.5,104.5C 514.5,104.5 516.5,104.5 518.5,104.5C 518.337,106.857 518.503,109.19 519,111.5C 519.914,109.336 521.081,107.336 522.5,105.5C 524.5,104.167 526.5,104.167 528.5,105.5C 527.087,108.661 525.42,111.661 523.5,114.5C 525.246,118.327 527.246,121.993 529.5,125.5C 527.167,126.833 524.833,126.833 522.5,125.5C 519.135,115.972 517.802,116.306 518.5,126.5C 514.167,126.5 509.833,126.5 505.5,126.5C 505.442,122.212 503.442,120.879 499.5,122.5C 498.754,123.736 498.421,125.07 498.5,126.5C 496.396,126.799 494.396,126.466 492.5,125.5C 495.039,118.55 497.372,111.55 499.5,104.5 Z M 501.5,112.5 C 502.339,113.641 503.006,114.974 503.5,116.5C 502.635,117.583 501.635,117.749 500.5,117C 501.38,115.644 501.714,114.144 501.5,112.5 Z"/></g>
<g><path style="opacity:0.777" fill="#ffde00" d="M 530.5,104.5 C 534.167,104.5 537.833,104.5 541.5,104.5C 541.5,106.167 541.5,107.833 541.5,109.5C 539.833,109.5 538.167,109.5 536.5,109.5C 536.5,110.5 536.5,111.5 536.5,112.5C 538.167,112.5 539.833,112.5 541.5,112.5C 541.5,114.167 541.5,115.833 541.5,117.5C 539.833,117.5 538.167,117.5 536.5,117.5C 536.5,118.833 536.5,120.167 536.5,121.5C 538.167,121.5 539.833,121.5 541.5,121.5C 541.5,123.167 541.5,124.833 541.5,126.5C 537.833,126.5 534.167,126.5 530.5,126.5C 530.5,119.167 530.5,111.833 530.5,104.5 Z"/></g>
<g><path style="opacity:0.773" fill="#ffde00" d="M 563.5,104.5 C 566.187,104.336 568.854,104.503 571.5,105C 572.38,106.356 572.714,107.856 572.5,109.5C 571.07,109.579 569.736,109.246 568.5,108.5C 567.5,108.833 566.833,109.5 566.5,110.5C 568.46,112.156 570.46,113.823 572.5,115.5C 574.416,119.845 573.416,123.345 569.5,126C 566.77,126.728 564.103,126.562 561.5,125.5C 560.386,124.277 560.219,122.944 561,121.5C 562.645,121.307 564.479,121.14 566.5,121C 566.957,120.586 567.291,120.086 567.5,119.5C 559.919,116.047 558.586,111.047 563.5,104.5 Z"/></g>
<g><path style="opacity:0.711" fill="#ffdf00" d="M 575.5,104.5 C 577.5,104.5 579.5,104.5 581.5,104.5C 581.5,110.167 581.5,115.833 581.5,121.5C 583.167,121.5 584.833,121.5 586.5,121.5C 586.5,123.167 586.5,124.833 586.5,126.5C 582.833,126.5 579.167,126.5 575.5,126.5C 575.5,119.167 575.5,111.833 575.5,104.5 Z"/></g>
<g><path style="opacity:0.758" fill="#ffde00" d="M 591.5,104.5 C 599.734,103.393 604.068,107.06 604.5,115.5C 603.899,124.955 599.232,128.121 590.5,125C 584.934,117.821 585.268,110.988 591.5,104.5 Z M 594.5,108.5 C 595.496,108.414 596.329,108.748 597,109.5C 597.667,113.167 597.667,116.833 597,120.5C 596,121.833 595,121.833 594,120.5C 593.238,116.413 593.404,112.413 594.5,108.5 Z"/></g>
<g><path style="opacity:0.763" fill="#ffde00" d="M 610.5,104.5 C 616.156,103.243 619.989,105.243 622,110.5C 624.733,120.938 620.9,126.105 610.5,126C 608.274,124.773 606.774,122.939 606,120.5C 605.333,116.833 605.333,113.167 606,109.5C 607.025,107.313 608.525,105.646 610.5,104.5 Z M 613.5,108.5 C 614.79,109.058 615.623,110.058 616,111.5C 616.543,114.868 616.376,118.201 615.5,121.5C 613.876,121.64 612.71,120.973 612,119.5C 611.013,115.525 611.513,111.859 613.5,108.5 Z"/></g>
<g><path style="opacity:0.696" fill="#ffdd00" d="M 622.5,104.5 C 626.833,104.5 631.167,104.5 635.5,104.5C 635.5,106.167 635.5,107.833 635.5,109.5C 634.5,109.5 633.5,109.5 632.5,109.5C 632.5,115.167 632.5,120.833 632.5,126.5C 630.167,126.5 627.833,126.5 625.5,126.5C 625.5,120.833 625.5,115.167 625.5,109.5C 624.5,109.5 623.5,109.5 622.5,109.5C 622.5,107.833 622.5,106.167 622.5,104.5 Z"/></g>
<g><path style="opacity:0.976" fill="#fff4c3" d="M 355.5,103.5 C 354.696,106.579 353.696,109.579 352.5,112.5C 345.466,111.084 338.799,109.084 332.5,106.5C 332.42,103.219 333.087,100.219 334.5,97.5C 335.117,97.3893 335.617,97.056 336,96.5C 341.638,98.1608 347.305,99.8275 353,101.5C 354.011,102.056 354.844,102.722 355.5,103.5 Z"/></g>
<g><path style="opacity:0.968" fill="#fff0af" d="M 376.5,100.5 C 383.387,103.903 390.721,105.903 398.5,106.5C 396.513,110.473 394.513,114.473 392.5,118.5C 391.691,117.531 390.691,116.698 389.5,116C 383.745,114.692 378.245,112.859 373,110.5C 372.617,111.056 372.117,111.389 371.5,111.5C 372.382,107.407 374.049,103.74 376.5,100.5 Z"/></g>
<g><path style="opacity:0.852" fill="#fefefc" d="M 311.5,114.5 C 308.914,122.753 303.581,128.419 295.5,131.5C 294.558,131.392 293.725,131.059 293,130.5C 292.244,123.783 292.411,117.117 293.5,110.5C 294.117,110.389 294.617,110.056 295,109.5C 300.35,111.712 305.85,113.378 311.5,114.5 Z"/></g>
<g><path style="opacity:0.689" fill="#ffde00" d="M 222.5,104.5 C 225.518,104.335 228.518,104.502 231.5,105C 232.711,106.113 232.711,107.28 231.5,108.5C 223.186,108.787 220.686,112.787 224,120.5C 225.049,121.517 226.216,121.684 227.5,121C 225.563,118.491 224.563,115.657 224.5,112.5C 227.167,112.5 229.833,112.5 232.5,112.5C 232.826,116.884 232.492,121.217 231.5,125.5C 218.144,127.289 213.644,121.622 218,108.5C 219.397,106.93 220.897,105.596 222.5,104.5 Z"/></g>
<g><path style="opacity:0.758" fill="#ffdd00" d="M 268.5,104.5 C 271.518,104.335 274.518,104.502 277.5,105C 278.711,106.113 278.711,107.28 277.5,108.5C 269.186,108.787 266.686,112.787 270,120.5C 271.049,121.517 272.216,121.684 273.5,121C 271.563,118.491 270.563,115.657 270.5,112.5C 273.167,112.5 275.833,112.5 278.5,112.5C 278.826,116.884 278.492,121.217 277.5,125.5C 264.167,127.31 259.667,121.643 264,108.5C 265.397,106.93 266.897,105.596 268.5,104.5 Z"/></g>
<g><path style="opacity:0.959" fill="#fff9de" d="M 332.5,106.5 C 338.799,109.084 345.466,111.084 352.5,112.5C 351.703,116.223 350.703,119.89 349.5,123.5C 343.62,120.702 337.453,118.369 331,116.5C 330.764,118.119 329.931,119.119 328.5,119.5C 329.695,115.037 331.028,110.704 332.5,106.5 Z"/></g>
<g><path style="opacity:0.886" fill="#ffde00" d="M 545.5,104.5 C 548.85,104.335 552.183,104.502 555.5,105C 561.171,109.614 560.838,113.614 554.5,117C 556.85,119.869 558.516,123.035 559.5,126.5C 557.473,126.662 555.473,126.495 553.5,126C 552.206,123.913 551.039,121.746 550,119.5C 549.503,121.81 549.337,124.143 549.5,126.5C 547.5,126.5 545.5,126.5 543.5,126.5C 542.924,118.889 543.59,111.556 545.5,104.5 Z M 549.5,108.5 C 553.274,108.484 554.274,110.15 552.5,113.5C 551.675,114.386 550.675,114.719 549.5,114.5C 549.5,112.5 549.5,110.5 549.5,108.5 Z"/></g>
<g><path style="opacity:0.947" fill="#fff6cf" d="M 392.5,118.5 C 390.895,121.378 389.561,124.378 388.5,127.5C 387.778,127.082 387.278,126.416 387,125.5C 386.439,126.022 385.772,126.355 385,126.5C 379.159,124.749 373.325,123.082 367.5,121.5C 368.657,118.016 369.99,114.683 371.5,111.5C 372.117,111.389 372.617,111.056 373,110.5C 378.245,112.859 383.745,114.692 389.5,116C 390.691,116.698 391.691,117.531 392.5,118.5 Z"/></g>
<g><path style="opacity:0.917" fill="#fffefe" d="M 349.5,123.5 C 339.188,157.416 329.188,191.416 319.5,225.5C 313.132,225.83 306.798,225.496 300.5,224.5C 291.853,196.578 283.52,168.578 275.5,140.5C 282.863,140.169 290.197,140.503 297.5,141.5C 301.979,158.75 306.146,176.083 310,193.5C 316.604,168.992 322.771,144.325 328.5,119.5C 329.931,119.119 330.764,118.119 331,116.5C 337.453,118.369 343.62,120.702 349.5,123.5 Z"/></g>
<g><path style="opacity:0.967" fill="#fffcee" d="M 367.5,121.5 C 373.325,123.082 379.159,124.749 385,126.5C 385.772,126.355 386.439,126.022 387,125.5C 387.278,126.416 387.778,127.082 388.5,127.5C 387.18,130.14 385.847,132.807 384.5,135.5C 377.569,136.025 370.736,137.025 364,138.5C 363.5,138.167 363,137.833 362.5,137.5C 364.479,132.247 366.146,126.914 367.5,121.5 Z"/></g>
<g><path style="opacity:0.911" fill="#fefffe" d="M 227.5,139.5 C 239.292,138.025 250.292,140.192 260.5,146C 269.107,153.831 271.607,163.331 268,174.5C 264.495,182.003 258.662,186.503 250.5,188C 258.032,200.035 265.365,212.202 272.5,224.5C 264.833,225.833 257.167,225.833 249.5,224.5C 243.465,213.625 237.632,202.625 232,191.5C 231.5,202.828 231.333,214.162 231.5,225.5C 224.5,225.5 217.5,225.5 210.5,225.5C 210.333,198.498 210.5,171.498 211,144.5C 216.441,142.27 221.941,140.603 227.5,139.5 Z M 231.5,152.5 C 243.585,150.254 249.585,155.254 249.5,167.5C 248.965,179.034 242.965,184.034 231.5,182.5C 231.5,172.5 231.5,162.5 231.5,152.5 Z"/></g>
<g><path style="opacity:0.923" fill="#fefffe" d="M 384.5,226.5 C 379.5,226.5 374.5,226.5 369.5,226.5C 355.775,221.816 347.608,212.149 345,197.5C 341.943,181.27 344.277,165.937 352,151.5C 362.59,139.644 375.423,136.478 390.5,142C 402.41,148.957 408.91,159.457 410,173.5C 411.422,185.494 410.089,197.16 406,208.5C 401.596,217.932 394.43,223.932 384.5,226.5 Z M 375.5,153.5 C 380.456,153.619 383.956,155.952 386,160.5C 390.667,175.167 390.667,189.833 386,204.5C 382.707,210.612 377.873,212.112 371.5,209C 368.305,205.086 366.471,200.586 366,195.5C 365.333,186.833 365.333,178.167 366,169.5C 366.422,162.292 369.588,156.959 375.5,153.5 Z"/></g>
<g><path style="opacity:0.918" fill="#fefffe" d="M 465.5,226.5 C 458.833,226.5 452.167,226.5 445.5,226.5C 431.389,223.226 422.222,214.559 418,200.5C 415.048,188.213 415.381,175.88 419,163.5C 427.746,144.54 442.58,136.706 463.5,140C 468.36,140.505 472.86,142.005 477,144.5C 476.382,149.407 474.382,153.74 471,157.5C 461.554,153.063 452.554,153.73 444,159.5C 441.806,162.554 440.139,165.888 439,169.5C 436.543,181.031 437.21,192.364 441,203.5C 444.729,210.613 450.562,213.279 458.5,211.5C 458.5,203.833 458.5,196.167 458.5,188.5C 455.167,188.5 451.833,188.5 448.5,188.5C 448.5,184.167 448.5,179.833 448.5,175.5C 458.5,175.5 468.5,175.5 478.5,175.5C 478.833,191.181 478.499,206.848 477.5,222.5C 473.45,224.072 469.45,225.406 465.5,226.5 Z"/></g>
<g><path style="opacity:0.92" fill="#fefffe" d="M 639.5,191.5 C 639.5,196.833 639.5,202.167 639.5,207.5C 635.346,216.987 628.346,223.321 618.5,226.5C 612.833,226.5 607.167,226.5 601.5,226.5C 598.977,225.616 596.31,224.782 593.5,224C 591.445,223.313 589.779,222.146 588.5,220.5C 590.049,215.681 591.882,211.014 594,206.5C 599.356,209.963 605.19,211.13 611.5,210C 617.612,206.753 619.112,201.92 616,195.5C 610.415,191.623 604.582,188.123 598.5,185C 588.416,174.677 586.916,163.177 594,150.5C 603.4,140.037 614.9,136.871 628.5,141C 631.196,141.765 633.696,142.932 636,144.5C 635.668,148.838 634.502,153.004 632.5,157C 630.177,156.694 627.844,156.028 625.5,155C 613.446,152.386 608.946,156.886 612,168.5C 617.747,172.959 623.914,176.793 630.5,180C 634.509,183.161 637.509,186.994 639.5,191.5 Z"/></g>
<g><path style="opacity:0.91" fill="#fefffe" d="M -0.5,225.5 C -0.5,222.5 -0.5,219.5 -0.5,216.5C 2.45356,191.425 5.45356,166.258 8.5,141C 15.1915,140.169 21.8582,140.336 28.5,141.5C 33.4889,159.122 38.3222,176.789 43,194.5C 48.0125,176.782 53.1792,159.116 58.5,141.5C 65.1418,140.336 71.8085,140.169 78.5,141C 82.044,169.065 85.044,197.231 87.5,225.5C 80.8333,225.5 74.1667,225.5 67.5,225.5C 66.3865,207.805 64.8865,190.138 63,172.5C 58.3119,189.918 53.3119,207.252 48,224.5C 46.0937,225.131 44.0937,225.464 42,225.5C 39.6977,225.4 37.6977,224.733 36,223.5C 31.1779,207.212 26.5112,190.878 22,174.5C 19.6716,191.439 17.8382,208.439 16.5,225.5C 10.8333,225.5 5.16667,225.5 -0.5,225.5 Z"/></g>
<g><path style="opacity:0.912" fill="#fefffe" d="M 99.5,140.5 C 114.167,140.5 128.833,140.5 143.5,140.5C 143.5,145.5 143.5,150.5 143.5,155.5C 135.833,155.5 128.167,155.5 120.5,155.5C 120.5,162.167 120.5,168.833 120.5,175.5C 127.167,175.5 133.833,175.5 140.5,175.5C 140.5,180.167 140.5,184.833 140.5,189.5C 133.833,189.5 127.167,189.5 120.5,189.5C 120.5,196.5 120.5,203.5 120.5,210.5C 128.167,210.5 135.833,210.5 143.5,210.5C 143.5,215.5 143.5,220.5 143.5,225.5C 128.833,225.5 114.167,225.5 99.5,225.5C 99.5,197.167 99.5,168.833 99.5,140.5 Z"/></g>
<g><path style="opacity:0.885" fill="#fefffe" d="M 154.5,140.5 C 169.5,140.5 184.5,140.5 199.5,140.5C 199.5,145.5 199.5,150.5 199.5,155.5C 191.833,155.5 184.167,155.5 176.5,155.5C 176.5,162.167 176.5,168.833 176.5,175.5C 183.167,175.5 189.833,175.5 196.5,175.5C 196.5,180.167 196.5,184.833 196.5,189.5C 189.833,189.5 183.167,189.5 176.5,189.5C 176.5,196.5 176.5,203.5 176.5,210.5C 183.841,210.334 191.174,210.5 198.5,211C 199.469,215.737 199.803,220.57 199.5,225.5C 184.5,225.5 169.5,225.5 154.5,225.5C 154.5,197.167 154.5,168.833 154.5,140.5 Z"/></g>
<g><path style="opacity:0.913" fill="#fefffe" d="M 491.5,140.5 C 506.167,140.5 520.833,140.5 535.5,140.5C 535.5,145.5 535.5,150.5 535.5,155.5C 527.833,155.5 520.167,155.5 512.5,155.5C 512.5,162.167 512.5,168.833 512.5,175.5C 519.167,175.5 525.833,175.5 532.5,175.5C 532.5,180.167 532.5,184.833 532.5,189.5C 525.833,189.5 519.167,189.5 512.5,189.5C 512.5,196.5 512.5,203.5 512.5,210.5C 520.167,210.5 527.833,210.5 535.5,210.5C 535.5,215.5 535.5,220.5 535.5,225.5C 520.833,225.5 506.167,225.5 491.5,225.5C 491.5,197.167 491.5,168.833 491.5,140.5 Z"/></g>
<g><path style="opacity:0.915" fill="#fefffe" d="M 545.5,140.5 C 552.5,140.5 559.5,140.5 566.5,140.5C 566.5,163.833 566.5,187.167 566.5,210.5C 573.5,210.5 580.5,210.5 587.5,210.5C 587.5,215.5 587.5,220.5 587.5,225.5C 573.5,225.5 559.5,225.5 545.5,225.5C 545.5,197.167 545.5,168.833 545.5,140.5 Z"/></g>
</svg>
